<svg xmlns="http://www.w3.org/2000/svg" viewBox="0 0 1344 960" shape-rendering="crispEdges" role="img"><title>Oriphim scanline mark</title><style>path{fill:#000}@media(prefers-color-scheme:dark){path{fill:#fff}}</style><g transform="translate(0 0)"><path d="M384 0h64v64h-64zM448 64h448v64h-448zM128 192h448v64h-448zM640 192h64v64h-64zM768 192h448v64h-448zM640 256h64v64h-64zM0 320h448v64h-448zM640 320h64v64h-64zM896 320h448v64h-448zM576 384h192v64h-192zM0 448h256v64h-256zM384 448h576v64h-576zM1088 448h256v64h-256zM576 512h192v64h-192zM0 576h448v64h-448zM640 576h64v64h-64zM896 576h448v64h-448zM640 640h64v64h-64zM128 704h448v64h-448zM640 704h64v64h-64zM768 704h448v64h-448zM448 832h448v64h-448zM832 896h64v64h-64z" fill="#0B0B0C"/></g></svg>
